<svg xmlns="http://www.w3.org/2000/svg" viewBox="0 0 184 70.1"><g opacity=".05"><path d="M71.647 14.059l-9 14.3-8.5-14.3h-10.5l13.7 23.8v18.2h9.9v-18l14.8-24h-10.4zM160.447 14.059h9.6v42.1h-9.6zM99.147 47.759c-6.8 0-12.4-5.6-12.4-12.4s5.6-12.4 12.4-12.4c6.8 0 12.4 5.6 12.4 12.4 0 6.9-5.6 12.4-12.4 12.4m0-34.3c-12.1 0-22 9.8-22 22 0 12.1 9.8 22 22 22 12.1 0 22-9.8 22-22s-9.9-22-22-22M142.847 47.259h-8.1v-8.4h8.1c2.3 0 4.2 1.9 4.2 4.2 0 2.4-1.8 4.2-4.2 4.2m9.1-13.2c2.8-2.8 4-6.8 3.2-10.6-.8-3.9-3.9-9.4-12.1-9.5h-20.6v8.9h20c2.1 0 3.8 1.8 3.8 3.9 0 2.1-1.7 3.8-3.8 3.8h-17.3v25.4h17.4c1.6.1 3.3 0 4.9-.3 4.5-1.4 9.1-5.9 9.1-11.9 0-.4.1-.7.1-1.1-.4-4-1.8-7-4.7-8.6M32.847 14.059c6.7 0 12.2 5.5 12.2 12.2 0 6.1-4.5 11.3-10.6 12.1l11.8 18h-11.3l-11.5-17.3v17.2h-9.5v-25.3h18.2c2.1 0 3.9-1.7 3.9-3.9 0-2.1-1.7-3.9-3.9-3.9h-22.3v-9.1h23" fill="#FFF"></path><path d="M173.347 54.359v-.5h.2c.2 0 .4.1.4.3 0 .2-.1.2-.3.2h-.3zm-.6 1.1h.5v-.8h.2l.4.8h.6l-.4-.8c.2-.1.4-.3.4-.5 0-.4-.3-.5-.8-.5h-.8l-.1 1.8zm.8.5c-.8 0-1.4-.6-1.4-1.4 0-.4.2-.7.4-1 .3-.3.6-.4 1-.4.8 0 1.4.6 1.4 1.4 0 .4-.2.7-.4 1-.3.2-.7.4-1 .4m0 .3c.5 0 .9-.2 1.2-.5.3-.3.5-.8.5-1.2 0-.9-.7-1.7-1.7-1.7-.4 0-.9.2-1.2.5-.3.3-.5.8-.5 1.2 0 .4.2.9.5 1.2.3.3.7.5 1.2.5" fill="#FFF"></path></g></svg>