<svg width="64" height="64" viewBox="0 0 64 64" fill="none" xmlns="http://www.w3.org/2000/svg">
<g clip-path="url(#clip0)">
<path d="M3.01304 0.227006L2.4037 5.18974M5.18973 3.01305L0.227004 2.4037" stroke="black"/>
<path d="M11.013 0.227006L10.4037 5.18974M13.1897 3.01305L8.227 2.4037" stroke="black"/>
<path d="M51.0131 0.227006L50.4037 5.18974M53.1898 3.01305L48.227 2.4037" stroke="black"/>
<path d="M59.0131 0.227006L58.4037 5.18974M61.1898 3.01305L56.227 2.4037" stroke="black"/>
<path d="M19.013 0.227006L18.4037 5.18974M21.1897 3.01305L16.227 2.4037" stroke="black"/>
<path d="M27.013 0.227006L26.4037 5.18974M29.1897 3.01305L24.227 2.4037" stroke="black"/>
<path d="M35.0131 0.227006L34.4037 5.18974M37.1898 3.01305L32.227 2.4037" stroke="black"/>
<path d="M43.0131 0.227006L42.4037 5.18974M45.1898 3.01305L40.227 2.4037" stroke="black"/>
<path d="M2.01304 8.22701L1.4037 13.1897M4.18973 11.013L-0.772996 10.4037" stroke="black"/>
<path d="M10.013 8.22701L9.4037 13.1897M12.1897 11.013L7.227 10.4037" stroke="black"/>
<path d="M50.0131 8.22701L49.4037 13.1897M52.1898 11.013L47.227 10.4037" stroke="black"/>
<path d="M58.0131 8.22701L57.4037 13.1897M60.1898 11.013L55.227 10.4037" stroke="black"/>
<path d="M18.013 8.22701L17.4037 13.1897M20.1897 11.013L15.227 10.4037" stroke="black"/>
<path d="M26.013 8.22701L25.4037 13.1897M28.1897 11.013L23.227 10.4037" stroke="black"/>
<path d="M34.013 8.22701L33.4037 13.1897M36.1897 11.013L31.227 10.4037" stroke="black"/>
<path d="M42.0131 8.22701L41.4037 13.1897M44.1898 11.013L39.227 10.4037" stroke="black"/>
<path d="M1.01304 16.227L0.403696 21.1897M3.18973 19.013L-1.773 18.4037" stroke="black"/>
<path d="M9.01304 16.227L8.4037 21.1897M11.1897 19.013L6.227 18.4037" stroke="black"/>
<path d="M49.0131 16.227L48.4037 21.1897M51.1898 19.013L46.227 18.4037" stroke="black"/>
<path d="M57.0131 16.227L56.4037 21.1897M59.1898 19.013L54.227 18.4037" stroke="black"/>
<path d="M17.013 16.227L16.4037 21.1897M19.1897 19.013L14.227 18.4037" stroke="black"/>
<path d="M25.013 16.227L24.4037 21.1897M27.1897 19.013L22.227 18.4037" stroke="black"/>
<path d="M33.013 16.227L32.4037 21.1897M35.1897 19.013L30.227 18.4037" stroke="black"/>
<path d="M41.0131 16.227L40.4037 21.1897M43.1898 19.013L38.227 18.4037" stroke="black"/>
<path d="M0.0130427 24.227L-0.596304 29.1897M2.18973 27.013L-2.773 26.4037" stroke="black"/>
<path d="M8.01304 24.227L7.4037 29.1897M10.1897 27.013L5.227 26.4037" stroke="black"/>
<path d="M48.0131 24.227L47.4037 29.1897M50.1898 27.013L45.227 26.4037" stroke="black"/>
<path d="M56.0131 24.227L55.4037 29.1897M58.1898 27.013L53.227 26.4037" stroke="black"/>
<path d="M16.013 24.227L15.4037 29.1897M18.1897 27.013L13.227 26.4037" stroke="black"/>
<path d="M24.013 24.227L23.4037 29.1897M26.1897 27.013L21.227 26.4037" stroke="black"/>
<path d="M32.013 24.227L31.4037 29.1897M34.1897 27.013L29.227 26.4037" stroke="black"/>
<path d="M40.0131 24.227L39.4037 29.1897M42.1898 27.013L37.227 26.4037" stroke="black"/>
<path d="M-0.986957 32.227L-1.5963 37.1897M1.18973 35.013L-3.773 34.4037" stroke="black"/>
<path d="M7.01304 32.227L6.4037 37.1897M9.18973 35.013L4.227 34.4037" stroke="black"/>
<path d="M47.0131 32.227L46.4037 37.1897M49.1898 35.013L44.227 34.4037" stroke="black"/>
<path d="M55.0131 32.227L54.4037 37.1897M57.1898 35.013L52.227 34.4037" stroke="black"/>
<path d="M15.013 32.227L14.4037 37.1897M17.1897 35.013L12.227 34.4037" stroke="black"/>
<path d="M23.013 32.227L22.4037 37.1897M25.1897 35.013L20.227 34.4037" stroke="black"/>
<path d="M31.013 32.227L30.4037 37.1897M33.1897 35.013L28.227 34.4037" stroke="black"/>
<path d="M39.0131 32.227L38.4037 37.1897M41.1898 35.013L36.227 34.4037" stroke="black"/>
<path d="M-1.98696 40.227L-2.5963 45.1897M0.189735 43.013L-4.773 42.4037" stroke="black"/>
<path d="M6.01304 40.227L5.4037 45.1897M8.18973 43.013L3.227 42.4037" stroke="black"/>
<path d="M46.0131 40.227L45.4037 45.1897M48.1898 43.013L43.227 42.4037" stroke="black"/>
<path d="M54.0131 40.227L53.4037 45.1897M56.1898 43.013L51.227 42.4037" stroke="black"/>
<path d="M14.013 40.227L13.4037 45.1897M16.1897 43.013L11.227 42.4037" stroke="black"/>
<path d="M22.013 40.227L21.4037 45.1897M24.1897 43.013L19.227 42.4037" stroke="black"/>
<path d="M30.013 40.227L29.4037 45.1897M32.1897 43.013L27.227 42.4037" stroke="black"/>
<path d="M38.0131 40.227L37.4037 45.1897M40.1898 43.013L35.227 42.4037" stroke="black"/>
<path d="M5.01304 48.227L4.4037 53.1897M7.18973 51.013L2.227 50.4037" stroke="black"/>
<path d="M45.0131 48.227L44.4037 53.1897M47.1898 51.013L42.227 50.4037" stroke="black"/>
<path d="M53.0131 48.227L52.4037 53.1897M55.1898 51.013L50.227 50.4037" stroke="black"/>
<path d="M13.013 48.227L12.4037 53.1897M15.1897 51.013L10.227 50.4037" stroke="black"/>
<path d="M21.013 48.227L20.4037 53.1897M23.1897 51.013L18.227 50.4037" stroke="black"/>
<path d="M29.013 48.227L28.4037 53.1897M31.1897 51.013L26.227 50.4037" stroke="black"/>
<path d="M37.0131 48.227L36.4037 53.1897M39.1898 51.013L34.227 50.4037" stroke="black"/>
<path d="M4.01304 56.227L3.4037 61.1897M6.18973 59.013L1.227 58.4037" stroke="black"/>
<path d="M44.0131 56.227L43.4037 61.1897M46.1898 59.013L41.227 58.4037" stroke="black"/>
<path d="M52.0131 56.227L51.4037 61.1897M54.1898 59.013L49.227 58.4037" stroke="black"/>
<path d="M12.013 56.227L11.4037 61.1897M14.1897 59.013L9.227 58.4037" stroke="black"/>
<path d="M20.013 56.227L19.4037 61.1897M22.1897 59.013L17.227 58.4037" stroke="black"/>
<path d="M28.013 56.227L27.4037 61.1897M30.1897 59.013L25.227 58.4037" stroke="black"/>
<path d="M36.0131 56.227L35.4037 61.1897M38.1898 59.013L33.227 58.4037" stroke="black"/>
<path d="M66.0907 8.22701L65.4814 13.1897M68.2674 11.013L63.3047 10.4037" stroke="black"/>
<path d="M65.0907 16.227L64.4814 21.1897M67.2674 19.013L62.3047 18.4037" stroke="black"/>
<path d="M64.0907 24.227L63.4814 29.1897M66.2674 27.013L61.3047 26.4037" stroke="black"/>
<path d="M63.0907 32.227L62.4814 37.1897M65.2674 35.013L60.3047 34.4037" stroke="black"/>
<path d="M62.0907 40.227L61.4814 45.1897M64.2674 43.013L59.3047 42.4037" stroke="black"/>
<path d="M61.0907 48.227L60.4814 53.1897M63.2674 51.013L58.3047 50.4037" stroke="black"/>
<path d="M60.0907 56.227L59.4814 61.1897M62.2674 59.013L57.3047 58.4037" stroke="black"/>
</g>
<defs>
<clipPath id="clip0">
<rect width="64" height="64" fill="white"/>
</clipPath>
</defs>
</svg>
